/* XPM */
static char *e385dafe71e64b5298653da7c74df9c9KX8idThNFzeXGIhH[] = {
/* columns rows colors chars-per-pixel */
"32 32 135 2 ",
"   c #040403",
".  c #080807",
"X  c #0D0D0B",
"o  c #100F0D",
"O  c #11110F",
"+  c #131311",
"@  c #1A1917",
"#  c #1D1C1A",
"$  c #21211F",
"%  c #252523",
"&  c #282625",
"*  c #272825",
"=  c #282926",
"-  c #2C2B29",
";  c #2B2C28",
":  c #2B2C29",
">  c #2C2C2A",
",  c #2C2D2A",
"<  c #2D2D2A",
"1  c #2D2D2B",
"2  c #2D2E2B",
"3  c #2E2E2B",
"4  c #2C2C2C",
"5  c #2E2E2C",
"6  c #2F2E2C",
"7  c #2E2F2C",
"8  c #2E2E2D",
"9  c #2F2F2D",
"0  c #2B2B29",
"q  c #302F2D",
"w  c #312F2D",
"e  c #302F2E",
"r  c #2F302D",
"t  c #30302E",
"y  c #31302E",
"u  c #30312E",
"i  c #31312F",
"p  c #31322F",
"a  c #33322F",
"s  c #32332F",
"d  c #33342F",
"f  c #323230",
"g  c #333230",
"h  c #323330",
"j  c #333330",
"k  c #333331",
"l  c #323232",
"z  c #333332",
"x  c #343230",
"c  c #343331",
"v  c #343431",
"b  c #343531",
"n  c #353631",
"m  c #343432",
"M  c #343532",
"N  c #343433",
"B  c #343533",
"V  c #353533",
"C  c #363633",
"Z  c #343434",
"A  c #363634",
"S  c #373735",
"D  c #373832",
"F  c #373833",
"G  c #373834",
"H  c #373835",
"J  c #383933",
"K  c #383834",
"L  c #383934",
"P  c #383835",
"I  c #383935",
"U  c #393935",
"Y  c #393A35",
"T  c #383836",
"R  c #383936",
"E  c #393936",
"W  c #383837",
"Q  c #393937",
"!  c #393A37",
"~  c #3A3B36",
"^  c #3B3C37",
"/  c #393939",
"(  c #3A3A38",
")  c #3A3B38",
"_  c #3B3B38",
"`  c #3B3A39",
"'  c #3B3B39",
"]  c #3C3A38",
"[  c #3B3C39",
"{  c #3C3C3A",
"}  c #3C3D3A",
"|  c #3C3C3B",
" . c #3D3D3B",
".. c #3D3E3B",
"X. c #3D3D3C",
"o. c #3E3E3C",
"O. c #3E3F3C",
"+. c #41413F",
"@. c #41423F",
"#. c #42433F",
"$. c #424240",
"%. c #434342",
"&. c #444442",
"*. c #444542",
"=. c #454542",
"-. c #454443",
";. c #444543",
":. c #454543",
">. c #454642",
",. c #454643",
"<. c #454544",
"1. c #454644",
"2. c #464644",
"3. c #464744",
"4. c #464645",
"5. c #464745",
"6. c #474745",
"7. c #464646",
"8. c #474746",
"9. c gray28",
"0. c #484848",
"q. c #494948",
"w. c #4A4A48",
"e. c #4A4B48",
"r. c #4A4A49",
"t. c #4B4B49",
"y. c gray29",
"u. c #4B4B4A",
"i. c #4B4B4B",
"p. c #4C4C4A",
"a. c #4D4D4B",
"s. c #4C4C4C",
"d. c #525350",
"f. c #525251",
"g. c gray32",
/* pixels */
"Z 0.0.0.;.6.6.9.;.9.9.9.9.$.8 # Z s.s.i.e.0.e.0.e.e.e.s.s.9.u . ",
"9.! Z 1 1 ; 0 - 1 1 0 - 5 M =   X.X.[ y 1 1 r 5 1 r ; r u ( 4 . ",
"9.5 1 0 = 0 - 0 0 ; 0 - ; 0 +   [ r j 5 1 r 1 0 ; 0 ; r 4 4 + . ",
";.0 0 0 0 = 0 0 = - 0 - 0 * +   [ 1 1 4 ; 1 1 1 r ; r 4 4 * + . ",
";.* * 0 0 = 0 0 = 1 - = % $ X   [ * = 1 = 1 1 1 5 5 4 ; * % O   ",
"X.o o % * * * * % % & % + o X   j O + % * = * * * * * % + + O . ",
"4 o X o X X o + O O O O X X X   + X X O + O + O + + O + O X X   ",
"O                                                               ",
"X.6.9.-.;.#.1   % } } } ~ [ [ [ [ ( [ [ } Z @   5 9.3.;.;.;.#.. ",
"f.S S S ^ #.m   } } ] y r r r 1 1 r 5 r y H 0   ;.9.;.! ! ! S . ",
"f.S S ! ! ! =   } y y r r 1 1 1 ; 5 1 ; r 1 @   ;.[ [ ! S S S . ",
"f.S c K Y m -   [ r 1 1 = 1 r 1 5 1 = = 1 * O   *.! H F m ! S . ",
"f.S Z ! m m 0   [ = = r ; r 5 1 1 r 1 ; = $ O   *.y c Z Y ! ! . ",
"a.m m j ; = &   y O + % * * & & * * * * + o O   ! # $ e y y y . ",
"( = 0 = = = =   + X X O + O + O O O + + o o .   # # @ # # @ # . ",
"+                                                             . ",
"B O...[ [ [ [ ~ [ [ [ ( [ ! $   $ [ [ H W H W H ( H W H W M $ . ",
"e...[ r r ; r r 5 5 5 ; y H =   H ~ W ; 0 0 ; 0 ; ; 0 0 r M * . ",
"s.j r 4 ; ; = r 5 4 0 0 1 ; +   ( 5 5 ; ; 4 ; * 0 ; ; 0 4 * + . ",
"0.5 r r ; 4 r r 1 1 5 ; 5 0 O   W 0 4 ; 0 0 0 0 0 4 0 * ; % + . ",
"0.= = 1 r r * r r 1 ; 1 & % O   H * * ; 0 * 0 0 0 = = * * % o . ",
"*.O + % * * * * * * % % O o o   ; + O $ % % % % * % * % + O X . ",
"4 X o + O O O O O O + O X X X   + X O O O O + O + O O O X . X . ",
"O                                                             . ",
"Z X.} } ] ! %   1 3.3.;.;.;.;.;.;.;.;.;.$.#.=   $ } X.X.[ [ [ . ",
"0.1 1 1 y H *   0.;.;.! K ! Y Y Y Y S ! ( $.c   X.} ( 5 5 5 ; . ",
"0.1 1 0 5 ; @   ;.^ ! j c Y Y Y K Y m m ! Z %   [ j j 5 4 4 * . ",
"0.r 0 1 5 * O   ;.Y ! F K m Y m a D ! S ! j #   ( 5 ; 0 r 4 0 . ",
"0.1 5 - = % O   -.y c ! F m m H K Y Y Y x 4 #   ( = 0 - ; 1 1   ",
"9.* 0 % + O X   ( @ # y c m m y y a y w $ # @   y o + % * = 0   ",
"1 + O O o X X   # # @ # # # # # # # # # @ @ @   + o X + + + + . ",
"X   . . . .   . . . . . . . . . .   . .   .     . .   . . . . . "
};
